<svg xmlns="http://www.w3.org/2000/svg" width="536" height="72.274" viewBox="0 0 536 72.274"><defs><style>.a{fill:#352e1a;}</style></defs><path class="a" d="M1784.561,428.149c1.058,3.1,3.329,3.52,5.366,4.467,6.22,2.893,12.5,5.579,18.64,8.757a74.144,74.144,0,0,1,9.636,6.515,21.747,21.747,0,0,1,3.823,3.909c8.046,10.066,8.641,22.469,1.265,33.363a127.778,127.778,0,0,1-10.756,13.042c-3.856,4.348-7.973,8.254-11.8,12.649-2.882,3.311-5.663,6.89-7.2,11.77.783,3.737,2.944,4.731,4.972,5.636,3.024,1.351,6.181,2.134,9.193,3.523,6.222,2.872,12.528,5.523,18.54,9.106,9.993,5.957,13.195,18.339,8.37,32.056-2.436,6.924-5.5,13.436-8.39,20.037a116.523,116.523,0,0,0-7.633,24.195,84.283,84.283,0,0,0-1.68,17.987,54.391,54.391,0,0,1-.308,8.221c-.438,3.191-2.4,5.3-4.643,5.564-2.176.26-3.872-.968-5.054-3.5a28.022,28.022,0,0,1-2.2-10.21,83.28,83.28,0,0,1,1.307-18.876c2.047-12.24,5.909-23.417,10.466-34.174,1.916-4.521,3.915-8.975,5.867-13.467a29.8,29.8,0,0,0,1.164-2.889c1.583-5,.915-7.85-2.789-9.833a144.036,144.036,0,0,0-21.513-9.842,40.6,40.6,0,0,1-9.458-4.913,20.239,20.239,0,0,1-5.135-5.517c-4.237-6.341-4.97-13.833-1.926-21.368a51.134,51.134,0,0,1,5.67-10.578,153,153,0,0,1,10.349-12.455c3.4-3.812,7.029-7.237,10.437-11.039a64.276,64.276,0,0,0,5.627-7.373,5.618,5.618,0,0,0-.2-7.25,26.607,26.607,0,0,0-5.286-5.231c-6.716-4.957-14.036-7.7-21.258-10.786a47.786,47.786,0,0,1-7.248-3.765,19.05,19.05,0,0,1-4.4-4.158c-4.923-6.226-6.044-14.386-2.935-22.515a47.688,47.688,0,0,1,4.545-8.658,86.462,86.462,0,0,1,20.215-21.658c4.162-3.246,8.439-6.212,12.554-9.565a41.133,41.133,0,0,0,6.235-6.311c2.047-2.583,2.267-5.667.889-9.011a25.257,25.257,0,0,0-2.888-5.229,53.36,53.36,0,0,0-10.446-10.918c-7.825-6.023-15.623-12.122-23.348-18.389a52.059,52.059,0,0,1-11.766-12.57c-4.745-7.478-6.026-15.982-3.873-25.445.981-4.309,3.058-7.714,5.2-10.989a72.409,72.409,0,0,1,23.788-23.047c3.291-1.96,6.646-3.718,9.907-5.766a29.449,29.449,0,0,0,5.166-4.077,5.409,5.409,0,0,0,.738-7.128,114.62,114.62,0,0,0-6.711-9.347c-4.631-6.037-9.481-11.765-13.957-18.013-9.751-13.615-11.988-30.011-8.428-48.139a70.415,70.415,0,0,1,11.349-26.881,95.244,95.244,0,0,1,22.114-22.291,19.928,19.928,0,0,1,3.861-2.189c3.466-1.535,6.445-.1,7.681,3.566a8.861,8.861,0,0,1-3.188,10.2c-7.192,5.018-13.3,12.048-19.256,19.382-5.348,6.581-8.935,14.687-10.976,24.206-2.024,9.44-.406,21.486,4.513,28.608,4.255,6.159,8.9,11.793,13.389,17.644,2.6,3.4,5.346,6.6,7.8,10.2a32.428,32.428,0,0,1,3.709,7.436,25.929,25.929,0,0,1-2.89,23.63,27.817,27.817,0,0,1-8.374,7.793c-4,2.477-8.057,4.749-12.078,7.145a58.652,58.652,0,0,0-16.869,15.377c-7.151,9.5-6.986,14.666,1.2,22.09,6.315,5.729,12.881,10.957,19.484,16.033,5.573,4.285,11.251,8.34,16.163,14a85.922,85.922,0,0,1,8,11.054,30.394,30.394,0,0,1,4.156,15.221,28.021,28.021,0,0,1-3.954,16.025,39.773,39.773,0,0,1-9.312,10.223c-4.141,3.3-8.389,6.332-12.568,9.535a78.591,78.591,0,0,0-17.629,18.235C1786.236,423.168,1784.583,424.916,1784.561,428.149Z" transform="translate(-112.98 1836.817) rotate(-90)"/></svg>