<svg xmlns="http://www.w3.org/2000/svg" width="40" height="40" viewBox="0 0 40 40"><defs><style>.a{fill:#9767a9;}</style></defs><rect class="a" width="3.357" height="3.47" transform="translate(23.765 12.566)"/><path class="a" d="M63.132,68.038a5.582,5.582,0,0,1-11.164,0A5.447,5.447,0,0,1,52.5,65.7H48.8v9.58a1.594,1.594,0,0,0,1.584,1.584h14.37a1.594,1.594,0,0,0,1.584-1.584V65.7h-3.7A6.032,6.032,0,0,1,63.132,68.038Z" transform="translate(-37.553 -48.432)"/><path class="a" d="M66.58,71.357A3.3,3.3,0,0,0,69.9,68.038a3.442,3.442,0,0,0-.943-2.338H64.242a3.334,3.334,0,0,0,2.338,5.657Z" transform="translate(-46.582 -48.119)"/><path class="a" d="M34.2,14.2a20,20,0,1,0,20,20A20.01,20.01,0,0,0,34.2,14.2ZM44.338,40.809a3.544,3.544,0,0,1-3.529,3.529H27.626A3.544,3.544,0,0,1,24.1,40.809V27.591a3.544,3.544,0,0,1,3.529-3.529H40.809a3.544,3.544,0,0,1,3.529,3.529V40.809Z" transform="translate(-14.2 -14.2)"/></svg>