<svg xmlns="http://www.w3.org/2000/svg" width="20.986" height="19.395" viewBox="0 0 20.986 19.395"><defs><style>.a{fill:#9767a9;}</style></defs><path class="a" d="M8,16a7,7,0,1,1,7-7A7.022,7.022,0,0,1,8,16ZM8,3.4A5.6,5.6,0,1,0,13.6,9,5.618,5.618,0,0,0,8,3.4Z" transform="translate(-1 -2)"/><path class="a" d="M25.28,26.38a1.848,1.848,0,0,1-1.33-.49l-4.271-3.571A2.089,2.089,0,0,1,22.339,19.1l4.271,3.571a2.1,2.1,0,0,1-1.33,3.711Zm-4.271-6.372h0a.72.72,0,0,0-.7.77.709.709,0,0,0,.28.49L24.86,24.84a.677.677,0,0,0,.98-.07h0a.464.464,0,0,0,.14-.49.709.709,0,0,0-.28-.49l-4.271-3.571A.605.605,0,0,0,21.009,20.009Z" transform="translate(-6.375 -6.985)"/><path class="a" d="M18.994,19.814a.751.751,0,0,1-.42-.14l-1.68-1.4a.695.695,0,0,1,.91-1.05h0l1.61,1.4a.681.681,0,0,1,.07.98h0A.545.545,0,0,1,18.994,19.814Z" transform="translate(-5.691 -6.511)"/></svg>