<svg xmlns="http://www.w3.org/2000/svg" width="40" height="40" viewBox="0 0 40 40"><defs><style>.a{fill:#9767a9;fill-rule:evenodd;}</style></defs><path class="a" d="M0,20A20,20,0,1,1,20,40,19.952,19.952,0,0,1,0,20Zm30.25-4.917a2.774,2.774,0,0,0-1.917-1.917C26.667,12.75,20,12.75,20,12.75s-6.667,0-8.333.417A2.774,2.774,0,0,0,9.75,15.083a30.772,30.772,0,0,0-.417,5.25,30.772,30.772,0,0,0,.417,5.25A2.774,2.774,0,0,0,11.667,27.5c1.667.417,8.333.417,8.333.417s6.667,0,8.333-.417a2.774,2.774,0,0,0,1.917-1.917,31.308,31.308,0,0,0,.417-5.25A30.772,30.772,0,0,0,30.25,15.083Z"/><path class="a" d="M21.6,28.8v-8l6.4,4Z" transform="translate(-4.154 -4.16)"/></svg>